<svg width="100" height="100" viewBox="0 0 26.458 26.458" xmlns="http://www.w3.org/2000/svg"><defs><clipPath clipPathUnits="userSpaceOnUse" id="a"><path style="fill:red;stroke:red;stroke-width:.0032884" d="M-837.458 49.463a64.044 64.044 0 0 1-62.922 64.034 64.044 64.044 0 0 1-65.126-61.792 64.044 64.044 0 0 1 60.643-66.197 64.044 64.044 0 0 1 67.248 59.474"/></clipPath></defs><g transform="matrix(.20656 0 0 .20656 199.447 3.012)" style="stroke-width:4.8411" clip-path="url(#a)"><g style="stroke-width:4.8411"><path style="display:inline;fill:#f2f2f2;fill-opacity:1;stroke:none;stroke-width:1.58594;stroke-linecap:round;stroke-linejoin:round;stroke-miterlimit:4;stroke-dasharray:none;stroke-opacity:1" d="M-1073.606-68.166h128.088V59.922h-128.088z" transform="translate(108.061 53.585)"/><g style="display:inline;stroke-width:80.4599"><path style="opacity:1;fill:#f2ccb7;fill-opacity:1;stroke:none;stroke-width:4.99213;stroke-linecap:butt;stroke-linejoin:miter;stroke-miterlimit:4;stroke-dasharray:none;stroke-opacity:1" d="m-195.728 53.596-15.336 55.225 1.21 24.445 10.163 62.37-10.364 3.501 20.877 38.435 65.463 4.7 22.957-44.531-9.477-3.147 12.752-62.035 1.21-24.483-13.874-54.384z" transform="translate(-827.109 -14.756) scale(.48411)"/><g style="stroke-width:80.4599"><g style="stroke-width:80.4599"><path style="fill:#333;fill-opacity:1;stroke:none;stroke-width:11.7188;stroke-miterlimit:4;stroke-dasharray:none;stroke-opacity:1" d="m98.389 623.502-.943 1.988c-.519 1.093-1.6 3.615-2.404 5.603-1.858 4.594-2.571 6.017-4.303 8.576l-1.4 2.071.494 1.906c.272 1.048.602 2.8.733 3.893l.195 1.632c-.008.059-.014.087-.023.079-.098-.098-.425-1.155-.726-2.349-.302-1.193-1.096-3.306-1.766-4.695-1.057-2.19-1.4-2.64-2.576-3.395-1.84-1.182-5.793-2.868-9.205-3.928l-2.82-.876-1.004.562c-1.777.995-3.82 1.044-5.536.204l-1.522-.744-2.826.878c-3.182.988-7.522 2.839-9.279 3.956-.966.615-1.386 1.192-2.408 3.306-.68 1.41-1.492 3.548-1.804 4.752-.129.5-.26.973-.377 1.363-.082.237-.142.418-.17.52-.454 1.585.155-3.386.64-5.241.483-1.84.473-2.042-.135-2.711-1.282-1.41-2.92-4.462-4.677-8.709-.98-2.367-2.201-5.198-2.716-6.292l-.935-1.988.118 12.29.075 7.87-.094.018c.031.167.065.336.1.505l.036 3.897.985 2.53c2.478 6.37 7.693 12.205 10.151 13.435l-.19-1.216a35.906 35.906 0 0 0-.315-1.77c-.107-.468-.05-.448.366.128 2.908 4.026 4.695 5.488 8.107 6.63 1.447.485 4.063 1.553 5.815 2.374 1.751.82 3.433 1.45 3.738 1.4.304-.05 2.049-.771 3.876-1.6 1.828-.83 4.382-1.858 5.677-2.285 2.69-.886 4.651-2.373 6.662-5.05 1.586-2.11 1.738-2.267 1.558-1.597-.082.305-.235 1.101-.34 1.77l-.19 1.216c3.44-1.983 8.189-8.205 10.259-14.339.739-2.189.803-3.176.946-14.458zm-28.713 16.146c.44-.001.864.016 1.267.045 3.447.255 11.184 2.922 12.046 4.152.608.869 1.599 4.028 1.414 4.51-.412 1.073-5.93 2.674-7.086 2.055-.779-.417-1.666-2.279-1.858-3.898l-.162-1.365h-11.3l-.19 1.424c-.222 1.672-1.046 3.423-1.803 3.827-.648.347-.814.34-2.956-.126-1.92-.417-3.938-1.36-4.161-1.944-.227-.59 1.003-4.032 1.685-4.714.758-.758 5.626-2.655 8.875-3.459a17.892 17.892 0 0 1 4.229-.507zM40.277 611.357l.963-2.096c.53-1.152 2.155-4.005 2.976-6.1 3.162-27.718 21.25-13.714 26.732-14.315 7.153-.784 21.784-11.214 24.33 13.403 1 2.495 2.248 5.479 2.774 6.631l.955 2.096-.12-12.954-.077-3.176.096-.019a33.655 33.655 0 0 0-.101-.532c0-2.673-.18-2.932-1.044-5.222-4.494-7.083-8.156-11.73-14.762-14.646-6.281-2.773-15.223-4.156-30.07 1.949-1.62 2.225-1.775 2.39-1.59 1.684.083-.321.24-1.161.346-1.866l.194-1.282c-3.514 2.09-8.365 8.648-10.48 15.113-.754 2.308-.82-3.323-.965 8.569z" transform="matrix(.94622 0 0 .94622 -967.398 -540.552)"/></g><path d="M973.043 1228.586c-4.984 2.494-30.807 6.802-35.832 19.717l-1.927 12.25h125.853l-1.927-12.25c-5.025-12.915-30.848-17.223-35.832-19.717-2.222 3.328-4.935 7.816-8.216 9.802l-7.56 3.599c-1.273.42-3.784 1.43-5.58 2.245-1.797.816-3.512 1.523-3.811 1.573-.3-.05-2.016-.757-3.812-1.573-1.796-.816-4.308-1.826-5.58-2.245l-7.56-3.599c-3.281-1.986-5.995-6.474-8.216-9.802z" style="fill:#333;fill-opacity:1;stroke:none;stroke-width:11.5193;stroke-miterlimit:4;stroke-dasharray:none;stroke-opacity:1" transform="matrix(1.01775 0 0 1.01775 -1917.435 -1169.427)"/></g><path d="M-119.997 98.982c-8.272.002-15.54 1.13-23.289 3.611-7.538 2.407-13.356 2.403-21.122-.024-12.254-3.827-23.221-4.505-38.875-2.406-4.86.652-9.079 1.335-9.376 1.52-.298.183-.541 2.713-.541 5.622 0 4.178.244 5.703 1.164 7.261.64 1.085 1.56 4.114 2.043 6.731 2.853 15.444 5.552 18.748 16.757 20.509v.009c4.918.772 16.004.292 19.781-.857 1.724-.525 4.116-1.813 5.315-2.863 2.375-2.08 5.49-8.235 8.197-16.197 1.859-5.466 3.116-6.846 6.237-6.846 3.065 0 4.304 1.562 6.614 8.334 5.45 15.981 8.914 18.672 24.082 18.703 12.287.028 18.074-1.77 21.104-6.548 1.677-2.645 2.378-4.895 4.844-15.559.698-3.018 1.641-5.797 2.097-6.175.597-.496.827-2.22.827-6.206 0-4.69-.155-5.578-1.033-5.915-2.58-.99-18.338-2.707-24.826-2.706zm-1.628 4.817c3.374.006 6.74.258 9.79.801 5.147.918 7.731 2.179 9.599 4.684 1.059 1.422 1.237 2.431 1.151 6.549-.13 6.28-1.675 13.641-3.61 17.21-1.852 3.418-4.6 4.92-10.577 5.784-6.962 1.006-13.423.495-18.565-1.469-4.599-1.756-8.048-8.065-9.945-18.193-1.248-6.66-1.207-8.404.24-10.244 2.433-3.093 12.205-5.136 21.917-5.122zm-64.124.011c7.01-.002 14.294 1.087 18.984 3.382l3.274 1.602.176 4.365c.118 2.937-.211 5.858-1.009 8.93-2.494 9.615-5.749 14.327-10.967 15.877-4.186 1.243-13.552 1.612-18.263.72-4.934-.935-7.693-2.56-9.362-5.518-3.284-5.817-4.661-21.126-2.202-24.477 2.332-3.178 10.638-4.877 19.37-4.881z" style="opacity:1;fill:#333;fill-opacity:1;stroke-width:5.95314" transform="translate(-827.109 -14.756) scale(.48411)"/></g></g></g></svg>